<svg xmlns="http://www.w3.org/2000/svg" viewBox="0 0 51 54">
  <path
    d="M2.06194 20.2745C2.68522 20.4867 3.35002 20.6073 4.04393 20.6073C4.6672 20.6073 5.26838 20.5117 5.83612 20.3391V36.7481C5.83612 37.328 6.14561 37.8684 6.64488 38.1582L22.3391 47.2835C23.0814 46.4108 24.1808 45.8554 25.4084 45.8554C26.7446 45.8554 27.927 46.5134 28.6639 47.5218C28.6769 47.5403 28.6909 47.5576 28.7039 47.5756C28.7557 47.6494 28.8041 47.7248 28.8511 47.8026L28.9049 47.891C28.9465 47.9626 28.9849 48.0355 29.0214 48.1093C29.0414 48.1489 29.0603 48.1891 29.0792 48.2294C29.1105 48.2978 29.14 48.3673 29.1681 48.4378C29.1881 48.4882 29.2059 48.5388 29.2237 48.5899C29.2462 48.6544 29.2684 48.7195 29.2873 48.7852C29.3056 48.8477 29.3202 48.9107 29.3359 48.9737L29.3762 49.1513C29.3918 49.23 29.4021 49.3097 29.4129 49.3902C29.4188 49.4379 29.428 49.4847 29.4323 49.5324C29.4448 49.6627 29.4523 49.7941 29.4523 49.9277C29.4523 50.1406 29.4313 50.3474 29.3994 50.5516L29.3881 50.6275C29.0576 52.5406 27.4007 54 25.4084 54C23.6318 54 22.1227 52.8386 21.5809 51.2314L4.7578 41.4502C3.08905 40.4806 2.06194 38.6876 2.06194 36.7481V20.2745ZM46.0991 10.2908C48.3291 10.2908 50.1428 12.1173 50.1428 14.3631C50.1428 15.5848 49.6037 16.6794 48.755 17.4265V36.7481C48.755 38.6876 47.7279 40.4806 46.0591 41.4502L31.6051 49.8539C31.5889 48.479 31.1274 47.2135 30.3619 46.1876L44.1722 38.1582C44.6713 37.8684 44.9809 37.328 44.9809 36.7481V18.2736C43.2938 17.7838 42.0554 16.2179 42.0554 14.3631C42.0554 13.4601 42.3524 12.6277 42.8485 11.9517C42.856 11.9409 42.8641 11.9306 42.8717 11.9197C42.9655 11.7948 43.0657 11.6743 43.1725 11.5608L43.187 11.545C43.4086 11.3127 43.6567 11.1079 43.9274 10.9337C43.9553 10.9152 43.985 10.8984 44.0136 10.8804C44.1209 10.8158 44.2303 10.755 44.3435 10.7002C44.3765 10.6844 44.4094 10.6671 44.4427 10.6519C44.5846 10.5878 44.7291 10.5286 44.879 10.4814L45.173 10.3994C45.4705 10.3287 45.7805 10.2908 46.0991 10.2908ZM25.4083 0C26.3394 0 27.27 0.242165 28.1041 0.72704L42.644 9.18112C41.5737 9.90759 40.7455 10.9637 40.2899 12.2006L26.217 4.01908C25.9718 3.87572 25.6919 3.80081 25.4083 3.80081C25.1248 3.80081 24.8454 3.87572 24.5995 4.01908L8.02283 13.6574C8.06272 13.887 8.08753 14.1216 8.08753 14.3632C8.08753 16.1154 6.98116 17.608 5.43643 18.1814C5.42457 18.1858 5.41217 18.1906 5.40031 18.1944C5.27792 18.2385 5.15392 18.2765 5.02666 18.3085L4.95065 18.328C4.83419 18.3551 4.71503 18.3764 4.59533 18.3931L4.49775 18.4079C4.3484 18.4246 4.19742 18.4356 4.04377 18.4356C3.87932 18.4356 3.71758 18.4225 3.55743 18.403C3.5143 18.3974 3.47225 18.3899 3.42965 18.3834C3.30673 18.3643 3.18595 18.34 3.06679 18.3101C3.03012 18.3008 2.99347 18.2921 2.95681 18.2819C2.64139 18.1922 2.3416 18.0679 2.06177 17.9088L1.82144 17.7607C0.725648 17.0318 0 15.7822 0 14.3632C0 12.1175 1.81431 10.2909 4.04377 10.2909C4.62229 10.2909 5.17117 10.4158 5.66881 10.6368L22.7124 0.72704C23.5465 0.242165 24.4777 0 25.4083 0Z"
  />
  <path
    d="M29.1304 23.4537H34.9168C37.8532 23.4537 40.185 25.7855 40.2714 28.6355C40.2714 31.5719 37.9396 33.9037 35.0032 33.9037H34.7441L33.1895 35.4583C33.0168 35.631 32.7577 35.7173 32.4986 35.7173L30.685 35.631L29.3895 36.9264C29.2168 37.0992 28.9577 37.1856 28.6986 37.1856L26.8849 37.0991L25.5895 38.3946C25.4168 38.5673 25.1577 38.6537 24.8986 38.6537L23.0849 38.5674L21.7895 39.8628C21.6167 40.0356 21.3577 40.1219 21.0986 40.1219H21.0122L18.7667 40.0355C18.2486 40.0355 17.9031 39.6037 17.9031 39.0855C17.9031 38.5674 18.3349 38.2219 18.8531 38.2219L20.6668 38.3082L21.9622 37.0128C22.1349 36.8401 22.394 36.7538 22.6531 36.7538L24.4668 36.8401L25.7622 35.5446C25.935 35.3719 26.194 35.2855 26.4531 35.2855L28.2668 35.3719L29.5622 34.0764L29.6486 33.99H15.1395C12.2031 33.99 9.87134 31.6582 9.87134 28.7219C9.87134 25.7855 12.2031 23.4537 15.1395 23.4537H16.8667L34.0532 13.4355V15.0763C34.0532 15.249 33.8804 19.2218 29.1304 23.4537ZM26.2804 23.3673C29.6486 20.9491 31.1168 18.531 31.7213 16.89L20.494 23.4537H26.3668L26.2804 23.3673ZM15.1395 32.0901H34.9168C36.8168 32.0901 38.3714 30.5355 38.3714 28.6355C38.3714 26.7355 36.8168 25.181 34.9168 25.181H15.1395C13.2395 25.181 11.6849 26.7355 11.6849 28.6355C11.6849 30.5355 13.2395 32.0901 15.1395 32.0901ZM33.3623 26.649H35.2623V27.8581H36.4714V29.7581H35.2623V30.9672H33.3623V29.7581H32.1532V27.8581H33.3623V26.649Z"
  />
  <style>
    @media (prefers-color-scheme: dark) {
      svg {
        fill: white;
      }
    }
  </style>
</svg>
