<?xml version="1.0" encoding="iso-8859-1"?>
<!-- Generator: Adobe Illustrator 19.0.0, SVG Export Plug-In . SVG Version: 6.00 Build 0)  -->
<svg version="1.1" id="Layer_1" xmlns="http://www.w3.org/2000/svg" xmlns:xlink="http://www.w3.org/1999/xlink" x="0px" y="0px"
	 viewBox="0 0 512 512" style="enable-background:new 0 0 512 512;" xml:space="preserve">
<path style="fill:#E0DDDF;" d="M100.614,9.465v356.106c0,17.458,14.149,31.607,31.607,31.607h46.357
	c17.458,0,31.607-14.149,31.607-31.607V9.465C210.186,9.465,100.614,9.465,100.614,9.465z"/>
<path style="fill:#9FD25A;" d="M100.614,127.465V365.51c0,17.492,14.149,31.669,31.607,31.669h46.357
	c17.458,0,31.607-14.177,31.607-31.669V127.465H100.614z"/>
<rect x="100.615" y="9.465" style="fill:#C1BCBF;" width="25.286" height="118"/>
<path style="fill:#6EAD32;" d="M125.9,365.572V127.465h-25.286v238.107c0,17.458,14.149,31.607,31.607,31.607h25.286
	C140.05,397.179,125.9,383.029,125.9,365.572z"/>
<path style="fill:#E0DDDF;" d="M302.9,9.465v356.106c0,17.458,14.149,31.607,31.607,31.607h46.357
	c17.458,0,31.607-14.149,31.607-31.607V9.465C412.471,9.465,302.9,9.465,302.9,9.465z"/>
<path style="fill:#5CC4E0;" d="M302.9,97.965v267.607c0,17.458,14.149,31.607,31.607,31.607h46.357
	c17.458,0,31.607-14.149,31.607-31.607V97.965C412.471,97.965,302.9,97.965,302.9,97.965z"/>
<path style="fill:#439EE8;" d="M328.185,365.572V97.965H302.9v267.607c0,17.458,14.149,31.607,31.607,31.607h25.286
	C342.335,397.179,328.185,383.029,328.185,365.572z"/>
<rect x="302.901" y="9.465" style="fill:#C1BCBF;" width="25.286" height="88.5"/>
<g>
	<circle style="fill:#439EE8;" cx="343.463" cy="112.184" r="11.062"/>
	<circle style="fill:#439EE8;" cx="344.517" cy="182.773" r="11.062"/>
</g>
<circle style="fill:#5CC4E0;" cx="356.106" cy="74.256" r="11.062"/>
<circle style="fill:#439EE8;" cx="389.293" cy="151.693" r="14.75"/>
<circle style="fill:#5CC4E0;" cx="369.802" cy="42.653" r="8.955"/>
<circle style="fill:#439EE8;" cx="356.106" cy="152.22" r="8.955"/>
<path style="fill:#E0DDDF;" d="M422.048,203.322c26.244,0,48.148,18.838,52.078,44.787l29.374,193.857
	c2.307,15.193-2.118,30.585-12.137,42.238s-24.58,18.332-39.941,18.332H60.579c-15.361,0-29.921-6.68-39.941-18.332
	S6.194,457.159,8.501,441.966l29.363-193.857c3.94-25.949,25.844-44.787,52.088-44.787H422.048z M462.6,459.476
	c2.802-3.266,4.046-7.575,3.403-11.832l-29.374-193.857c-1.117-7.386-7.112-12.537-14.581-12.537H89.952
	c-7.47,0-13.465,5.152-14.581,12.537L45.997,447.645c-0.643,4.256,0.59,8.566,3.403,11.832c2.802,3.256,6.88,5.131,11.178,5.131
	h390.843C455.72,464.607,459.797,462.732,462.6,459.476z"/>
<rect x="244.249" y="203.318" style="fill:#F9F8F9;" width="34.417" height="37.929"/>
<circle style="fill:#9FD25A;" cx="144.339" cy="126.934" r="15.277"/>
<g>
	<path style="fill:#6EAD32;" d="M129.087,127.465c0.28,8.19,6.99,14.75,15.25,14.75s14.97-6.56,15.25-14.75
		C159.588,127.465,129.087,127.465,129.087,127.465z"/>
	<circle style="fill:#6EAD32;" cx="183.321" cy="152.22" r="15.277"/>
</g>
<g>
	<circle style="fill:#9FD25A;" cx="143.285" cy="65.827" r="12.116"/>
	<circle style="fill:#9FD25A;" cx="187.008" cy="81.108" r="8.429"/>
</g>
<circle style="fill:#6EAD32;" cx="150.66" cy="177.505" r="12.116"/>
<path d="M511.312,440.78L495.46,336.384c-0.655-4.315-4.686-7.281-8.999-6.626c-4.314,0.655-7.281,4.683-6.626,8.999l15.852,104.396
	c1.961,12.91-1.799,25.995-10.317,35.899c-8.515,9.902-20.888,15.582-33.949,15.582H60.579c-13.06,0-25.435-5.68-33.949-15.582
	c-8.517-9.905-12.277-22.99-10.317-35.902l29.363-193.854c3.35-22.06,21.971-38.072,44.276-38.072h332.096
	c22.308,0,40.924,16.01,44.265,38.067v0.002l5.554,36.662c0.593,3.913,3.961,6.719,7.803,6.719c0.394,0,0.792-0.03,1.194-0.091
	c4.314-0.653,7.282-4.681,6.629-8.996l-5.554-36.662c0-0.002-0.001-0.004-0.001-0.006c-4.523-29.841-29.709-51.498-59.89-51.498
	h-1.675V17.366h17.384c4.364,0,7.902-3.537,7.902-7.902s-3.538-7.902-7.902-7.902H277.613c-4.364,0-7.902,3.537-7.902,7.902
	s3.538,7.902,7.902,7.902h17.384v178.053h-76.911V17.366h17.384c4.364,0,7.902-3.537,7.902-7.902s-3.538-7.902-7.902-7.902H75.328
	c-4.364,0-7.902,3.537-7.902,7.902s3.538,7.902,7.902,7.902h17.384v178.053h-2.76c-30.177,0-55.369,21.66-59.901,51.506
	L0.689,440.78c-2.653,17.469,2.435,35.174,13.958,48.575c11.521,13.398,28.262,21.083,45.932,21.083h390.843
	c17.67,0,34.413-7.685,45.931-21.083C508.877,475.953,513.964,458.249,511.312,440.78z M404.569,17.367V195.42h-93.768v-22.125
	h23.273c4.364,0,7.902-3.537,7.902-7.902s-3.538-7.902-7.902-7.902h-23.273V17.367C310.802,17.367,404.569,17.367,404.569,17.367z
	 M202.284,17.367V195.42h-93.768v-22.125h23.273c4.364,0,7.902-3.537,7.902-7.902s-3.538-7.902-7.902-7.902h-23.273V17.367
	C108.516,17.367,202.284,17.367,202.284,17.367z"/>
<path d="M53.814,448.791c0.001-0.011,0.004-0.02,0.006-0.031c1.88-13.175,4.009-28.108,6.388-42.161
	c0.728-4.304-2.17-8.382-6.473-9.109c-4.302-0.735-8.381,2.17-9.109,6.473c-2.413,14.255-4.558,29.297-6.45,42.566
	c-0.002,0.013-0.002,0.026-0.003,0.039c-0.952,6.507,0.953,13.084,5.24,18.061c4.309,5.007,10.566,7.879,17.167,7.879h390.843
	c6.6,0,12.857-2.872,17.174-7.886c4.302-5.014,6.206-11.631,5.219-18.161l-29.374-193.854
	c-1.687-11.159-11.106-19.258-22.395-19.258H89.952c-11.289,0-20.707,8.1-22.394,19.258c0,0.003,0,0.006,0,0.006
	c-0.001,0.008-0.003,0.014-0.003,0.014l-5.304,35.925c-3.531,23.924-7.062,47.857-10.634,71.907
	c-0.642,4.316,2.338,8.335,6.654,8.977c0.394,0.058,0.785,0.086,1.171,0.086c3.851,0,7.223-2.819,7.806-6.742
	c3.574-24.054,7.105-47.992,10.637-71.922l5.299-35.893c0.536-3.533,3.191-5.814,6.768-5.814h2.76v116.419
	c0,21.786,17.723,39.509,39.509,39.509h46.357c21.786,0,39.509-17.723,39.509-39.509V249.153h76.911v116.419
	c0,21.786,17.723,39.509,39.509,39.509h46.357c21.786,0,39.509-17.723,39.509-39.509V249.153h1.675c3.578,0,6.234,2.283,6.769,5.82
	l29.372,193.851c0.298,1.978-0.28,3.984-1.578,5.496c-1.305,1.515-3.197,2.385-5.19,2.385H60.579c-1.994,0-3.886-0.869-5.191-2.386
	c-1.301-1.512-1.876-3.514-1.577-5.494C53.813,448.813,53.813,448.803,53.814,448.791z M178.579,389.277h-46.357
	c-13.072,0-23.705-10.635-23.705-23.705v-40.562h23.273c4.364,0,7.902-3.537,7.902-7.902c0-4.365-3.538-7.902-7.902-7.902h-23.273
	v-22.125h23.273c4.364,0,7.902-3.537,7.902-7.902c0-4.365-3.538-7.902-7.902-7.902h-23.273v-22.125h93.768v116.419
	C202.284,378.642,191.65,389.277,178.579,389.277z M380.864,389.277h-46.357c-13.072,0-23.705-10.635-23.705-23.705v-40.562h23.273
	c4.364,0,7.902-3.537,7.902-7.902c0-4.365-3.538-7.902-7.902-7.902h-23.273v-22.125h23.273c4.364,0,7.902-3.537,7.902-7.902
	c0-4.365-3.538-7.902-7.902-7.902h-23.273v-22.125h93.768v116.419C404.569,378.642,393.936,389.277,380.864,389.277z"/>
<g>
</g>
<g>
</g>
<g>
</g>
<g>
</g>
<g>
</g>
<g>
</g>
<g>
</g>
<g>
</g>
<g>
</g>
<g>
</g>
<g>
</g>
<g>
</g>
<g>
</g>
<g>
</g>
<g>
</g>
</svg>
