<svg xmlns="http://www.w3.org/2000/svg" xmlns:xlink="http://www.w3.org/1999/xlink" width="64px" height="64px" version="1.1">
    <!-- Generator: Sketch 64 (93537) - https://sketch.com -->
    <title>GraphQL Tools/ toolkit@1x</title>
    <desc>Created with Sketch.</desc>
    <g id="GraphQL-Tools/-toolkit" stroke="none" stroke-width="1" fill="none" fill-rule="evenodd">
        <g id="Libraries-Logos-/-Toolskit" fill="#184AE8">
            <path d="M36.0400049,60.3145407 C36.0400049,60.5683309 36.0151531,60.8160963 35.9767457,61.0593432 C35.9722272,61.0902198 35.9684617,61.1203432 35.9631901,61.1504667 C35.5655605,63.4345778 33.5736469,65.1772198 31.178079,65.1772198 C29.0415728,65.1772198 27.2273877,63.7900346 26.5759679,61.8711704 L6.34580741,50.1923062 C4.33958519,49.0340593 3.10452346,46.8930346 3.10452346,44.5780469 L3.10452346,24.9066765 C3.85384444,25.1604667 4.65286914,25.3043062 5.48804198,25.3043062 C6.23736296,25.3043062 6.96032593,25.1905901 7.64262222,24.9842444 L7.64262222,44.5780469 C7.64262222,45.2701333 8.01464691,45.9147753 8.61560988,46.2611951 L27.4872025,57.1568494 C28.3796099,56.1153309 29.7012765,55.4518617 31.178079,55.4518617 C32.7844123,55.4518617 34.2062395,56.2373309 35.0926222,57.441516 C35.108437,57.4633556 35.1250049,57.484442 35.1408198,57.5062815 C35.2025728,57.5943926 35.2613136,57.6840099 35.3177951,57.7766395 C35.3396346,57.8120346 35.3614741,57.8466765 35.3825605,57.8828247 C35.4322642,57.9679235 35.4782025,58.0552815 35.5226346,58.1433926 C35.5467333,58.190837 35.5693259,58.2382815 35.5911654,58.286479 C35.6295728,58.3685654 35.6649679,58.4514049 35.6988568,58.5357506 C35.7229556,58.5959975 35.744042,58.6562444 35.7658815,58.7172444 C35.7929926,58.7940593 35.8193506,58.8716272 35.8419432,58.9499481 C35.8645358,59.0252568 35.8811037,59.1005654 35.8999309,59.175121 C35.9172519,59.2459111 35.9353259,59.3159481 35.9488815,59.3874914 C35.9677086,59.4816272 35.979758,59.576516 35.9933136,59.672158 C36.0000914,59.7301457 36.0113877,59.785121 36.0166593,59.8423556 C36.0309679,59.9982444 36.0400049,60.1548864 36.0400049,60.3145407 L36.0400049,60.3145407 Z M60.919721,17.8487506 C60.919721,19.307479 60.2720667,20.614837 59.2508815,21.5064914 L59.2508815,44.5780469 C59.2508815,46.8930346 58.0165728,49.0340593 56.0095975,50.1923062 L38.629116,60.2264296 C38.6095358,58.5847012 38.0545111,57.0732568 37.1342395,55.8487383 L53.7405481,46.2611951 C54.340758,45.9147753 54.7127827,45.2701333 54.7127827,44.5780469 L54.7127827,22.5178864 C52.684721,21.9334914 51.195116,20.0635778 51.195116,17.8487506 C51.195116,16.7703309 51.5528321,15.7762568 52.1492765,14.9697012 C52.1575605,14.9568988 52.1673506,14.9440963 52.1771407,14.9312938 C52.2893506,14.7821827 52.4098444,14.6383432 52.5386222,14.5027877 L52.5559432,14.4839605 C52.8225358,14.2060716 53.120758,13.9620716 53.4460914,13.7534667 C53.4799802,13.7316272 53.5153753,13.7120469 53.5500173,13.6902074 C53.6787951,13.6133926 53.8105852,13.5403432 53.9461407,13.4748247 C53.9860543,13.4559975 54.0259679,13.4356642 54.0666346,13.4175901 C54.236079,13.3407753 54.4107951,13.2699852 54.5907827,13.2142568 C54.5915358,13.2142568 54.5915358,13.2142568 54.5915358,13.2135037 C55.054684,13.0666519 55.5464494,12.9860716 56.0577951,12.9860716 C58.7395358,12.9860716 60.919721,15.1670099 60.919721,17.8487506 L60.919721,17.8487506 Z M3.10452346,22.0826025 C1.6269679,21.2474296 0.625362963,19.6636889 0.625362963,17.8487506 C0.625362963,15.1670099 2.80630123,12.9860716 5.48804198,12.9860716 C6.18314074,12.9860716 6.84284444,13.1359358 7.44154815,13.399516 L27.936042,1.56702222 C28.9384,0.987898765 30.0589926,0.69871358 31.1773259,0.69871358 C32.2971654,0.69871358 33.4170049,0.987898765 34.419363,1.56702222 L51.9022642,11.6613926 C50.6159926,12.5289481 49.6196593,13.7896148 49.0729185,15.2664173 L32.1503136,5.49738025 C31.8551037,5.32642963 31.5184741,5.23681235 31.1773259,5.23681235 C30.8369309,5.23681235 30.5010543,5.32642963 30.2050914,5.49738025 L10.2724,17.0060469 C10.3205975,17.2801704 10.3499679,17.5603185 10.3499679,17.8487506 C10.3499679,19.9408247 9.0192642,21.7233802 7.16215309,22.4079358 C7.14784444,22.4132074 7.13278272,22.4192321 7.11922716,22.4237506 C6.97086914,22.4757136 6.82251111,22.5216519 6.66963457,22.5600593 C6.63875802,22.5675901 6.60863457,22.5766272 6.57775802,22.5826519 C6.43768395,22.6150346 6.29459753,22.6406395 6.15075802,22.6609728 C6.11159753,22.6662444 6.07319012,22.6737753 6.03327654,22.6782938 C5.85404198,22.6986272 5.67254815,22.7114296 5.48804198,22.7114296 C5.28998025,22.7114296 5.09493086,22.6956148 4.90214074,22.6722691 C4.85093086,22.6662444 4.80047407,22.6572074 4.74851111,22.6489235 C4.60090617,22.6263309 4.45631358,22.5977136 4.31247407,22.5615654 C4.26879506,22.5502691 4.22436296,22.540479 4.17993086,22.5276765 C3.8011284,22.4207383 3.4404,22.2723802 3.10452346,22.0826025 L3.10452346,22.0826025 Z" id="Fill-2"/>
            <path d="M41.4995439,15.07066 L41.4694027,16.9796012 C41.4650969,17.1992012 41.3179792,21.9162953 35.7239204,26.8429424 L35.7239204,26.8429424 L42.5243439,26.8429424 C45.9188145,26.8429424 48.6803204,29.6044482 48.6803204,32.9989188 C48.6803204,36.3933894 45.9188145,39.1548953 42.5243439,39.1548953 L42.5243439,39.1548953 L42.204991,39.1548953 L40.4302498,40.9325071 C40.214238,41.1492365 39.9250263,41.2626247 39.6092616,41.2468365 L39.6092616,41.2468365 L37.432638,41.1269894 L35.897591,42.6677776 C35.6808616,42.8845071 35.395238,42.9986129 35.0744498,42.9821071 L35.0744498,42.9821071 L32.9042851,42.8615424 L31.369238,44.4016129 C31.151791,44.61906 30.8546851,44.7317306 30.5460969,44.71666 L30.5460969,44.71666 L28.3780851,44.5939424 L26.843038,46.1340129 C26.6406616,46.3371071 26.3658027,46.4504953 26.0808969,46.4504953 C26.0615204,46.4504953 26.0407086,46.4497776 26.0206145,46.44906 L26.0206145,46.44906 L23.368191,46.3005071 C22.7739792,46.2674953 22.3204263,45.7594012 22.353438,45.1659071 C22.3864498,44.5716953 22.8823439,44.1274718 23.4887557,44.1511541 L23.4887557,44.1511541 L25.6589204,44.2724365 L27.1939675,42.7323659 C27.4099792,42.5142012 27.7149792,42.4022482 28.0171086,42.4173188 L28.0171086,42.4173188 L30.1851204,42.5393188 L31.7194498,40.9999659 C31.9361792,40.7825188 32.2268263,40.6691306 32.542591,40.6849188 L32.542591,40.6849188 L34.7127557,40.8062012 L36.2485204,39.2654129 C36.2901439,39.2237894 36.336791,39.1886247 36.383438,39.1548953 L36.383438,39.1548953 L19.3120498,39.1548953 C15.9182969,39.1548953 13.156791,36.3933894 13.156791,32.9989188 C13.156791,29.6044482 15.9182969,26.8429424 19.3120498,26.8429424 L19.3120498,26.8429424 L21.3465792,26.8429424 L21.3422733,26.8357659 L41.4995439,15.07066 Z M42.5243439,28.9958835 L19.3120498,28.9958835 C17.1052851,28.9958835 15.3097322,30.7914365 15.3097322,32.9989188 C15.3097322,35.2064012 17.1052851,37.0019541 19.3120498,37.0019541 L19.3120498,37.0019541 L42.5243439,37.0019541 C44.7318263,37.0019541 46.5273792,35.2064012 46.5273792,32.9989188 C46.5273792,30.7914365 44.7318263,28.9958835 42.5243439,28.9958835 L42.5243439,28.9958835 Z M42.8789333,30.5431306 L42.8789333,32.0379894 L44.3745098,32.0379894 L44.3745098,34.1909306 L42.8789333,34.1909306 L42.8789333,35.6865071 L40.7259922,35.6865071 L40.7259922,34.1909306 L39.2311333,34.1909306 L39.2311333,32.0379894 L40.7259922,32.0379894 L40.7259922,30.5431306 L42.8789333,30.5431306 Z M38.7854027,19.1476129 L25.600791,26.8429424 L32.4399675,26.8429424 L32.3760969,26.7546718 C36.3690851,23.9013071 38.0648851,21.0400482 38.7854027,19.1476129 L38.7854027,19.1476129 Z" id="Combined-Shape"/>
        </g>
    </g>
</svg>

