<?xml version="1.0" encoding="utf-8"?>
<!-- Generator: Adobe Illustrator 24.3.0, SVG Export Plug-In . SVG Version: 6.00 Build 0)  -->
<svg version="1.1" id="Layer_1" xmlns="http://www.w3.org/2000/svg" xmlns:xlink="http://www.w3.org/1999/xlink" x="0px" y="0px"
	 viewBox="0 0 512 512" style="enable-background:new 0 0 512 512;" xml:space="preserve">
<style type="text/css">
	.st0{fill:#808080;}
	.st1{fill:#B3B3B3;}
</style>
<path class="st0" d="M352.2,68.9L309,140.3l-15.8,26.2c-12.9,21.2-25.4,42.7-37.6,64.3l0,0c-9.7,17.4-25.8,46.6-35.1,64.3
	c-2.1,4-4.2,7.9-6.2,11.9c-12.8,24.7-25.3,49.6-37.3,74.8l91.9-142l78.5-121.3c-3.1-2-4-6.1-2-9.2l21.6-33.4c2-3.1,6.1-4,9.2-2
	l8-12.3C373.4,54.5,358.9,57.9,352.2,68.9z"/>
<path d="M470.8,148.1c0-5.7-3-11-8-13.9L355.2,71.8c-7.6-4.4-17.5-1.8-21.9,5.8s-1.8,17.5,5.8,21.9l99.6,57.8l-0.6,210.3
	L255.7,472.3L73.8,366.7l0.6-210.3l170.3-97.7c3.5,1.7,7.4,2.7,11.5,2.8c15.6,0.4,28.5-12,28.8-27.6c0.4-15.6-12-28.5-27.6-28.8
	c-15-0.3-27.5,11.1-28.7,25.8L50.4,133.1c-5,2.8-8,8.1-8,13.9l-0.6,228.8c0,5.7,3,11,8,13.9l197.9,114.9c2.4,1.4,5,2.1,7.7,2.2
	c2.9,0.1,5.8-0.6,8.3-2.1l198.5-113.9c5-2.8,8-8.1,8-13.9L470.8,148.1z"/>
<path class="st1" d="M384.3,61.5l-8,12.3c0,0,0,0,0,0c3.1,2,4,6.1,2,9.2l-21.6,33.4c-1,1.6-2.6,2.6-4.3,2.9c-1.6,0.3-3.4,0-4.9-0.9
	c0,0,0,0,0,0L177.1,381.7c26.4-31.1,52-62.9,76.8-95.2c6.9-9,21.7-28.7,28.4-37.8c14.8-20.1,29.4-40.5,43.6-61l9.4-13.6l7.6-11
	l47.8-69.2C398.1,83.2,395.2,68.6,384.3,61.5z"/>
</svg>
