<?xml version="1.0" encoding="iso-8859-1"?>
<!-- Generator: Adobe Illustrator 19.0.0, SVG Export Plug-In . SVG Version: 6.00 Build 0)  -->
<svg version="1.1" id="Layer_1" xmlns="http://www.w3.org/2000/svg" xmlns:xlink="http://www.w3.org/1999/xlink" x="0px" y="0px"
	 viewBox="0 0 512 512" style="enable-background:new 0 0 512 512;" xml:space="preserve">
<g>
	
		<rect x="115.931" y="421.52" transform="matrix(-0.7071 -0.7071 0.7071 -0.7071 -34.9195 852.0204)" style="fill:#F95428;" width="86.137" height="23.445"/>
	<path style="fill:#F95428;" d="M454.296,312.445c0,27.783-10.832,53.913-30.479,73.56c-19.647,19.647-45.777,30.467-73.56,30.467
		c-27.794,0-53.913-10.82-73.56-30.467l-52.248-52.248l-31.581-3.88l-2.602-14.126l-3.669-19.846l-7.327-7.327l-31.276-31.264
		c-9.906-9.917-23.07-15.368-37.079-15.368c-14.02,0-27.185,5.451-37.091,15.368c-9.906,9.894-15.357,23.07-15.357,37.079
		c0,14.032,5.451,27.208,15.357,37.102l38.321,38.321l13.141,13.153l-16.295,16.857l-11.617-11.617L57.237,348.07
		c-14.325-14.325-22.214-33.386-22.214-53.678c0-20.269,7.889-39.33,22.226-53.666c14.325-14.337,33.386-22.226,53.666-22.226
		c20.269,0,39.33,7.889,53.666,22.226l37.173,37.184l38.298,12.403l1.852,27.748l51.369,51.357
		c15.216,15.228,35.449,23.609,56.984,23.609c21.523,0,41.756-8.382,56.984-23.609c15.216-15.216,23.609-35.449,23.609-56.972
		c0-21.535-8.393-41.768-23.609-56.984l-56.703-56.691l16.588-16.588l56.691,56.691C443.464,258.52,454.296,284.65,454.296,312.445z
		"/>
	<path style="fill:#F95428;" d="M462.915,202.688l-16.578-16.578l15.39-15.391c15.776-15.775,15.776-41.444,0-57.221l-11.622-11.621
		l16.578-16.579l11.623,11.622c12.071,12.071,18.718,28.119,18.718,45.189s-6.647,33.118-18.718,45.189L462.915,202.688z"/>
</g>
<path style="fill:#E54728;" d="M125.287,382.968l-16.295,16.857l-11.617-11.617c4.912-6.143,9.824-12.274,14.771-18.393
	L125.287,382.968z"/>
<path style="fill:#B3B3B3;" d="M481.505,29.342c-16.388-15.849-42.647-15.005-57.98,1.876l-98.74,108.622l-16.154,0.129
	l0.363,17.244l-20.433,22.472c-29.401,32.331-58.297,65.108-86.713,98.306l19.987,19.987l19.964,19.964
	c32.448-29.729,64.463-59.95,96.021-90.652l20.902-20.339l16.81-16.365L481.61,87.357C497.952,71.461,497.905,45.191,481.505,29.342
	z M463.874,64.463l-8.862,9.167l-12.156,5.967l-4.138,10.89l-23.516,24.325c-2.298,2.38-5.357,3.575-8.429,3.575
	c-2.931,0-5.873-1.102-8.147-3.294c-4.654-4.502-4.783-11.922-0.281-16.576l48.661-50.349c4.501-4.654,11.922-4.783,16.576-0.281
	C468.246,52.389,468.363,59.809,463.874,64.463z M205.541,314.848l-18.944-18.944c-22.707,26.81-45.085,53.889-67.124,81.238
	c-4.947,6.119-9.859,12.25-14.771,18.393C74.153,433.845,44.237,472.67,14.977,512c56.105-44.792,111.096-90.933,164.915-138.398
	c14.946-13.176,29.799-26.458,44.558-39.845L205.541,314.848z"/>
<g>
	<path style="fill:#808080;" d="M186.597,295.904l18.944,18.944L14.977,512c29.26-39.33,59.176-78.155,89.725-116.465
		c4.912-6.143,9.824-12.274,14.771-18.393C141.512,349.793,163.89,322.714,186.597,295.904z"/>
	<polygon style="fill:#808080;" points="198.214,307.521 190.266,315.751 186.597,295.904 	"/>
	<path style="fill:#808080;" d="M481.505,29.342l-17.924,18.545c-4.654-4.502-12.074-4.373-16.576,0.281l-48.661,50.349
		c-4.501,4.654-4.373,12.074,0.281,16.576l-176.79,182.886l-19.987-19.987c28.416-33.199,57.312-65.975,86.713-98.306l20.433-22.472
		l-0.363-17.244l16.154-0.129l98.74-108.622C438.857,14.337,465.116,13.493,481.505,29.342z"/>
</g>
<path style="fill:#F95428;" d="M455.152,73.771l-16.576,16.576l-43.011-43.011l-6.975-6.975
	c-10.902-10.914-25.403-16.916-40.818-16.916c-15.427,0-29.916,6.002-40.818,16.904c-10.902,10.914-16.904,25.403-16.904,40.83
	s6.002,29.916,16.904,40.818l11.137,11.148l6.694,6.694l-15.79,17.361l-18.616-18.616c-15.333-15.333-23.774-35.719-23.774-57.406
	s8.44-42.073,23.774-57.406C305.699,8.44,326.085,0,347.772,0c21.687,0,42.061,8.44,57.394,23.785l6.131,6.131l7.022,7.022
	l13.071,13.071l7.034,7.034l16.588,16.588L455.152,73.771z"/>
<path style="fill:#E54728;" d="M318.09,133.146l6.694,6.694l-15.79,17.361l-6.612-6.612
	C307.622,144.763,312.874,138.926,318.09,133.146z"/>
<g>
</g>
<g>
</g>
<g>
</g>
<g>
</g>
<g>
</g>
<g>
</g>
<g>
</g>
<g>
</g>
<g>
</g>
<g>
</g>
<g>
</g>
<g>
</g>
<g>
</g>
<g>
</g>
<g>
</g>
</svg>
